<?xml version="1.0" standalone="no"?><!DOCTYPE svg PUBLIC "-//W3C//DTD SVG 1.1//EN" "http://www.w3.org/Graphics/SVG/1.1/DTD/svg11.dtd"><svg t="1637562029155" class="icon" viewBox="0 0 1024 1024" version="1.1" xmlns="http://www.w3.org/2000/svg" p-id="7717" xmlns:xlink="http://www.w3.org/1999/xlink" width="200" height="200"><defs><style type="text/css"></style></defs><path d="M511.957333 810.666667a460.8 460.8 0 0 1-134.272-20.778667 21.333333 21.333333 0 0 1 12.586667-40.746667 417.92 417.92 0 0 0 121.856 18.858667c223.402667 0 413.568-199.808 462.549333-255.914667a923.178667 923.178667 0 0 0-154.410666-141.184 21.12 21.12 0 0 1-8.533334-13.909333 21.418667 21.418667 0 0 1 33.578667-20.650667 968.362667 968.362667 0 0 1 173.781333 161.962667 21.461333 21.461333 0 0 1 0.384 26.922667c-2.346667 2.944-58.069333 72.533333-147.328 142.250666C788.437333 732.8 658.048 810.666667 512 810.666667h-0.042667zM190.634667 691.2a21.333333 21.333333 0 0 1-12.544-4.053333 964.010667 964.010667 0 0 1-173.098667-161.408 21.461333 21.461333 0 0 1-0.384-26.965334c2.304-2.901333 57.386667-72.021333 147.285333-142.208C235.562667 291.2 365.909333 213.333333 512 213.333333c37.802667 0.170667 75.52 5.077333 112.042667 14.549334a21.333333 21.333333 0 0 1-10.752 41.258666A410.922667 410.922667 0 0 0 511.914667 256c-223.445333 0-413.568 199.765333-462.592 255.914667a924.928 924.928 0 0 0 153.813333 140.672 21.248 21.248 0 0 1-12.501333 38.613333z" p-id="7718"></path><path d="M341.333333 533.333333a21.333333 21.333333 0 0 1-21.333333-21.333333c0-105.856 86.144-192 192-192a21.333333 21.333333 0 0 1 0 42.666667c-82.346667 0-149.333333 66.986667-149.333333 149.333333a21.333333 21.333333 0 0 1-21.333334 21.333333zM512 704a21.333333 21.333333 0 0 1 0-42.666667c82.346667 0 149.333333-66.986667 149.333333-149.333333a21.333333 21.333333 0 0 1 42.666667 0c0 105.856-86.144 192-192 192zM96 949.333333a21.333333 21.333333 0 0 1-15.104-36.394666l832-832a21.333333 21.333333 0 1 1 30.208 30.165333l-832 832a21.376 21.376 0 0 1-15.104 6.229333z" p-id="7719"></path></svg>