<?xml version="1.0" standalone="no"?><!DOCTYPE svg PUBLIC "-//W3C//DTD SVG 1.1//EN" "http://www.w3.org/Graphics/SVG/1.1/DTD/svg11.dtd"><svg t="1637130842655" class="icon" viewBox="0 0 1024 1024" version="1.1" xmlns="http://www.w3.org/2000/svg" p-id="2023" xmlns:xlink="http://www.w3.org/1999/xlink" width="200" height="200"><defs><style type="text/css"></style></defs><path d="M511.829108 90.297562c232.338602 0 421.361677 189.021028 421.361677 421.361677S744.16771 933.019893 511.829108 933.019893 90.467431 743.998865 90.467431 511.658216 279.490505 90.297562 511.829108 90.297562M511.829108 63.961754c-247.254314 0-447.696462 200.440102-447.696462 447.696462s200.442148 447.696462 447.696462 447.696462c247.258407 0 447.696462-200.440102 447.696462-447.696462S759.086491 63.961754 511.829108 63.961754L511.829108 63.961754z" p-id="2024"></path><path d="M270.810822 582.77902c42.125423-9.194406 82.297354-18.426675 120.513748-27.659967 0 10.55745 0.642636 21.731954 1.980097 33.587979-17.153682 2.661619-47.424102 9.875928-90.886987 21.731954-11.856026 2.661619-20.445658 4.629437-25.692149 5.928013L270.810822 582.77902zM339.965855 345.711719 328.10983 478.081493l49.378617 0 13.836123-161.996534L282.666848 316.084958 282.666848 282.496979l144.200216 0-13.81054 195.584514 29.626761 0c-1.337461 25.036209-3.291976 61.916165-5.91471 110.62554-1.337461 26.360368-1.980097 45.444005-1.980097 57.299007 0 44.74918-22.425755 67.162656-67.174935 67.162656-15.816221 0-34.256198 0-55.31891 0-1.337461-11.856026-3.960195-24.38027-7.895831-37.534871 7.895831 0 19.750833 0.655939 35.568077 1.980097 11.830443 0 20.394493 0 25.666566 0 23.712051 0 35.568077-11.213389 35.568077-33.587979 1.286296-15.803941 2.622734-46.086641 3.934612-90.873684 1.311879-19.750833 1.980097-34.230616 1.980097-43.462884L292.542776 509.689375l15.790638-163.976632L339.965855 345.712743zM622.450555 258.784928c-2.64934 5.285377-5.91471 11.213389-9.875928 17.784038 38.190811 67.174935 84.945671 115.267257 140.265604 144.212496-1.311879 1.337461-3.291976 3.960195-5.91471 7.90811-7.895831 10.55745-13.836123 18.452257-17.796318 23.712051-57.96825-39.515992-102.71743-87.581708-134.324288-144.225799-39.502689 63.22702-86.283132 113.287159-140.265604 150.140509-6.609535-10.518564-13.836123-20.394493-21.731954-29.626761 63.21474-40.814568 113.904213-100.081393 152.12163-177.800475L622.450555 258.784928zM715.318662 501.780241c-21.088294 64.552202-40.84015 119.215172-59.280128 163.976632l84.945671 0 0 31.606859L448.597995 697.363731l0-31.606859 169.917948 0c21.037129-48.709375 41.482787-107.333564 61.234643-175.820378L715.318662 501.780241zM468.375433 511.668449l33.587979-9.888208c2.622734 9.232269 7.201006 23.712051 13.81054 43.462884 14.478759 39.514969 23.712051 66.518996 27.672246 80.998779l-35.568077 9.875928C494.684636 591.368652 481.516732 549.872562 468.375433 511.668449zM496.022097 430.670693l195.584514 0 0 33.574676-195.584514 0L496.022097 430.670693zM551.341007 493.88441l35.568077-9.875928c15.790638 57.96825 26.978445 100.106975 33.587979 126.428458l-35.568077 9.875928C574.358233 574.22725 563.197032 532.101827 551.341007 493.88441z" p-id="2025"></path></svg>